# xmcd
#
# Track frame offsets: 
#        150
#        24875
#        45561
#        65979
#        89621
#        116487
#        137979
#        153561
#        178278
#        201920
#        223949
#        248666
#
# Disc length: 3659 seconds
#
# Revision: 0
# Processed by: cddbd v1.5.2PL0 Copyright (c) Steve Scherf et al.
# Submitted via: ExactAudioCopy v0.99pb5
#
DISCID=b70e490c
DTITLE=DJ Trashy - Dirty Dozen
DYEAR=2011
DGENRE=Beat
TTITLE0=Make 'em Bounce
TTITLE1=Zoom (Farace Remix)
TTITLE2=Fist Pumpin
TTITLE3=Born 2 Rock
TTITLE4=Delirious
TTITLE5=Girl N the Club
TTITLE6=Slam Dunk
TTITLE7=Get Loud
TTITLE8=Flying Down the Highway
TTITLE9=Here I Go Again
TTITLE10=Secret Love
TTITLE11=Holdin On
EXTD=
EXTT0=
EXTT1=
EXTT2=
EXTT3=
EXTT4=
EXTT5=
EXTT6=
EXTT7=
EXTT8=
EXTT9=
EXTT10=
EXTT11=
PLAYORDER=
